<?xml version="1.0" standalone="no"?>
<!DOCTYPE svg PUBLIC "-//W3C//DTD SVG 20010904//EN"
 "http://www.w3.org/TR/2001/REC-SVG-20010904/DTD/svg10.dtd">
    <svg version="1.0" xmlns="http://www.w3.org/2000/svg"
    width="800.000000pt" height="1000.000000pt" viewBox="0 0 800.000000 1000.000000"
    preserveAspectRatio="xMidYMid meet">

    <g transform="translate(0.000000,1000.000000) scale(0.100000,-0.100000)"
    fill="#000000" stroke="none">
    <path d="M3495 9854 c-133 -9 -299 -50 -388 -95 -142 -73 -365 -270 -453 -401
    -57 -85 -149 -309 -165 -400 -18 -100 -21 -220 -11 -331 6 -56 8 -126 5 -154
    l-6 -53 -39 0 c-22 0 -48 -5 -60 -11 -48 -26 -64 -149 -33 -245 24 -71 121
    -236 183 -310 43 -52 104 -88 133 -79 30 10 39 -9 39 -85 0 -36 7 -123 14
    -195 25 -222 25 -220 -7 -220 -15 1 -27 -2 -27 -6 0 -4 61 -47 135 -95 74 -49
    149 -99 167 -111 105 -69 202 -116 258 -122 50 -6 67 -14 107 -47 40 -35 50
    -50 64 -105 10 -35 22 -80 28 -98 8 -28 8 -40 -4 -57 -14 -22 -14 -22 69 -34
    81 -11 293 -20 301 -11 8 7 -16 41 -29 41 -8 0 -16 6 -19 14 -4 9 0 12 13 9
    25 -7 74 27 61 40 -8 8 -15 7 -23 -1 -14 -14 -118 -16 -118 -2 0 6 10 10 23
    10 12 0 49 16 82 35 33 19 77 42 97 52 37 17 49 33 27 33 -6 0 -20 -5 -31 -11
    -31 -17 -42 3 -18 33 25 33 25 37 -2 30 -20 -5 -20 -3 8 36 16 22 40 46 53 52
    13 6 21 13 18 17 -4 3 -13 0 -22 -7 -13 -11 -14 -10 -9 4 3 9 10 16 15 16 33
    0 169 201 169 251 0 15 4 29 8 31 14 5 105 150 117 185 6 18 14 36 18 39 4 4
    7 17 7 28 0 12 9 38 20 59 11 21 32 84 46 140 14 56 30 110 35 119 5 10 10 35
    11 55 1 21 6 41 11 45 12 8 -9 63 -36 94 l-18 21 -41 -19 c-22 -11 -37 -22
    -34 -25 3 -3 12 0 20 6 24 20 40 3 23 -23 -10 -15 -13 -38 -9 -74 3 -36 1 -52
    -7 -52 -8 0 -10 -11 -5 -37 7 -35 6 -37 -10 -24 -16 13 -18 13 -16 0 3 -20
    -11 -59 -21 -59 -5 0 -9 -10 -9 -22 -1 -21 -2 -20 -18 7 l-17 30 -3 -40 c-3
    -27 1 -43 13 -51 12 -9 13 -14 4 -19 -7 -5 -9 -22 -6 -46 4 -27 1 -39 -10 -43
    -22 -9 -23 -8 -23 14 0 11 -7 23 -15 26 -8 4 -15 17 -15 30 0 13 -4 24 -10 24
    -5 0 -10 4 -10 9 0 5 6 8 14 7 8 0 15 4 15 9 0 6 -7 9 -15 9 -8 -1 -14 1 -14
    6 0 10 -52 34 -69 31 -7 -1 -25 8 -40 21 -50 46 -62 51 -123 52 -39 1 -63 6
    -66 14 -2 6 -11 12 -20 12 -22 0 -86 23 -103 37 -8 5 -31 16 -51 22 -21 7 -40
    16 -43 21 -11 17 -12 84 -2 110 12 31 75 70 112 70 14 0 34 5 44 12 16 10 26
    5 71 -35 69 -62 89 -61 152 4 27 28 47 56 45 63 -2 6 -23 25 -48 43 -24 18
    -56 42 -71 53 -15 11 -39 19 -55 18 -35 -2 -126 41 -173 81 -19 17 -38 31 -43
    31 -4 0 -1 10 8 23 10 17 14 44 13 90 -2 37 -4 62 -6 57 -2 -6 -8 -10 -13 -10
    -11 0 0 29 23 59 10 13 18 32 18 41 0 10 7 23 15 30 8 7 15 23 15 36 0 37 31
    30 78 -18 29 -29 42 -51 42 -70 0 -15 4 -28 9 -28 5 0 12 -10 15 -22 3 -13 17
    -31 31 -41 24 -18 25 -17 25 3 0 34 34 21 38 -14 3 -22 6 -26 13 -15 7 11 9
    11 9 -3 0 -10 3 -18 8 -18 4 0 27 -18 52 -40 49 -44 153 -90 201 -90 19 0 45
    12 69 31 35 28 42 30 56 18 10 -8 23 -27 30 -44 8 -18 13 -23 14 -12 0 9 5 17
    10 17 6 0 10 -22 10 -49 0 -122 51 -29 70 129 4 36 15 106 24 155 19 103 35
    302 31 390 -8 180 -46 291 -152 450 -19 28 -39 58 -46 69 -51 78 -117 143
    -202 202 -47 32 -224 120 -279 138 -68 23 -241 38 -351 30z m475 -404 c14 -5
    43 -11 65 -15 63 -10 151 -63 218 -130 34 -34 67 -68 72 -76 32 -44 45 -73 64
    -140 18 -66 19 -81 9 -139 -14 -79 -12 -136 7 -211 17 -65 20 -139 5 -139 -5
    0 -10 7 -10 16 0 24 -47 87 -55 74 -4 -6 1 -17 11 -24 9 -7 14 -18 10 -25 -4
    -6 -2 -18 4 -26 14 -16 5 -35 -16 -35 -8 0 -14 9 -14 21 0 11 -4 18 -9 15 -5
    -3 -11 3 -14 14 -3 12 -14 20 -25 20 -44 0 -32 34 12 35 27 0 29 15 6 53 -15
    24 -27 32 -48 32 -17 0 -45 12 -67 30 -21 17 -46 30 -54 29 -24 -3 -63 16 -85
    40 -12 13 -29 21 -42 19 -12 -2 -30 4 -41 13 -14 13 -28 15 -63 9 -25 -4 -41
    -8 -36 -9 11 -1 -24 -41 -37 -41 -5 0 -6 7 -3 16 3 8 -1 26 -10 39 -13 20 -21
    23 -46 18 -20 -4 -33 -1 -39 8 -7 11 -9 10 -9 -5 0 -12 -5 -16 -16 -12 -8 3
    -24 1 -35 -5 -16 -8 -23 -6 -39 13 -11 13 -19 28 -20 35 -1 32 -31 43 -102 38
    -38 -2 -76 -9 -83 -15 -9 -7 -16 -6 -25 5 -7 8 -19 15 -27 15 -10 0 -12 6 -8
    20 4 11 2 20 -4 20 -6 0 -11 -6 -11 -14 0 -24 -24 -24 -43 1 -13 16 -17 32
    -13 48 7 26 20 32 31 15 14 -23 25 -7 25 36 0 40 2 45 18 38 28 -13 86 -6 98
    11 7 9 10 24 7 34 -3 10 0 22 6 25 6 4 11 21 11 37 0 22 6 32 25 39 14 5 25
    13 25 18 0 17 -13 22 -27 10 -22 -18 -24 -5 -5 35 16 34 20 36 65 37 27 0 57
    -5 69 -11 34 -18 107 -13 131 9 47 43 118 55 187 32z m-730 -433 c0 -22 -11
    -27 -33 -16 -16 9 -17 13 -6 20 21 13 39 11 39 -4z m-11 -308 c51 -18 37 -32
    -29 -27 -64 5 -83 14 -60 28 20 13 50 12 89 -1z m9 -91 c16 -16 15 -48 -2 -48
    -20 0 -39 27 -32 45 7 18 18 19 34 3z m1002 3 c0 -5 8 -12 18 -14 14 -4 13 -5
    -4 -6 -11 0 -29 6 -40 14 -19 14 -18 14 4 15 12 0 22 -4 22 -9z m3 -61 c52
    -32 61 -45 22 -30 -37 14 -105 50 -105 55 0 14 42 1 83 -25z m-1123 -154 c0
    -2 -7 -9 -15 -16 -12 -10 -15 -10 -15 4 0 9 7 16 15 16 8 0 15 -2 15 -4z m70
    -20 c0 -8 -5 -18 -10 -21 -6 -4 -8 -15 -5 -26 6 -19 -9 -27 -20 -9 -3 5 -13 6
    -21 3 -15 -5 -15 -3 0 25 20 39 56 57 56 28z m360 -107 c0 -13 -38 -11 -46 2
    -9 16 18 30 33 17 7 -6 13 -14 13 -19z m795 -339 c3 -5 -3 -10 -14 -10 -12 0
    -21 5 -21 10 0 6 6 10 14 10 8 0 18 -4 21 -10z m-475 -251 c30 -11 63 -25 72
    -30 10 -5 23 -9 30 -9 7 0 29 -5 48 -10 32 -9 37 -15 54 -71 l18 -62 -29 -29
    c-28 -28 -30 -28 -61 -13 -28 15 -30 18 -17 32 17 16 12 33 -11 33 -8 0 -14 9
    -14 20 0 20 -4 21 -60 14 -36 -4 -65 -3 -72 4 -7 5 -31 12 -53 15 -22 3 -53 8
    -70 12 -38 9 -135 57 -135 68 0 4 -12 12 -27 18 l-28 11 25 14 c37 22 256 10
    330 -17z m-60 -328 c25 -17 49 -31 54 -31 5 0 18 -7 28 -16 14 -14 20 -14 33
    -4 12 10 18 10 29 1 11 -9 19 -9 35 1 17 11 22 10 34 -5 12 -17 14 -17 40 3
    15 12 27 17 27 11 0 -6 -4 -11 -10 -11 -5 0 -10 -13 -10 -29 0 -16 -6 -34 -14
    -40 -7 -6 -16 -25 -20 -41 -6 -34 -25 -40 -33 -9 -4 13 -13 19 -27 18 -11 -1
    -39 5 -61 15 -25 11 -41 13 -43 6 -5 -14 -23 -12 -47 6 -19 14 -19 15 5 12 21
    -3 26 2 28 24 3 23 -1 28 -25 34 -15 4 -32 10 -38 14 -5 4 -32 13 -60 20 -89
    23 -94 44 -12 48 34 2 53 -4 87 -27z m20 -571 c0 -5 -4 -10 -10 -10 -5 0 -10
    5 -10 10 0 6 5 10 10 10 6 0 10 -4 10 -10z m-156 -119 c4 -5 -3 -7 -14 -4 -23
    6 -26 13 -6 13 8 0 17 -4 20 -9z m111 -61 c3 -5 -1 -10 -9 -10 -9 0 -16 5 -16
    10 0 6 4 10 9 10 6 0 13 -4 16 -10z"/>
    <path d="M3515 9190 c3 -5 8 -10 11 -10 2 0 4 5 4 10 0 6 -5 10 -11 10 -5 0
    -7 -4 -4 -10z"/>
    <path d="M3326 9065 c-3 -9 0 -15 9 -15 16 0 20 16 6 24 -5 3 -11 -1 -15 -9z"/>
    <path d="M3930 7245 c0 -9 5 -15 11 -13 6 2 11 8 11 13 0 5 -5 11 -11 13 -6 2
    -11 -4 -11 -13z"/>
    <path d="M4440 8141 c-24 -7 -25 -11 -26 -81 -1 -41 -4 -106 -8 -145 l-6 -70
    35 39 c33 38 78 138 91 205 10 51 -21 70 -86 52z"/>
    <path d="M4160 7789 c0 -5 5 -7 10 -4 6 3 10 8 10 11 0 2 -4 4 -10 4 -5 0 -10
    -5 -10 -11z"/>
    <path d="M4081 6968 c-6 -24 -13 -56 -16 -73 -2 -16 -9 -31 -15 -33 -5 -2 -8
    -7 -6 -11 2 -3 -18 -31 -44 -61 -27 -30 -52 -67 -55 -81 -4 -16 -15 -29 -27
    -32 -16 -5 -19 -11 -15 -30 4 -13 0 -32 -8 -44 -8 -11 -11 -23 -8 -27 3 -3 -2
    -16 -13 -28 -19 -21 -19 -21 1 -13 11 4 48 13 81 20 65 13 124 47 124 71 0 8
    5 14 11 14 7 0 9 -11 5 -32 -4 -18 -9 -53 -12 -78 -2 -25 -6 -53 -8 -62 -3
    -14 1 -17 20 -12 15 4 24 2 24 -5 0 -28 18 -7 23 27 12 78 20 101 43 123 13
    12 24 31 24 41 0 10 19 37 43 60 23 23 34 38 25 35 -10 -4 -25 -10 -33 -13
    -10 -4 -15 0 -15 10 0 9 -9 21 -20 28 -11 7 -20 20 -20 29 0 20 -22 69 -54
    124 -16 26 -21 44 -15 51 6 8 4 17 -6 28 -9 9 -18 16 -19 16 -2 0 -8 -19 -15
    -42z m124 -267 c3 -5 1 -12 -5 -16 -5 -3 -10 1 -10 9 0 18 6 21 15 7z"/>
    <path d="M3150 6900 c-14 -11 -47 -32 -75 -46 -27 -15 -79 -46 -115 -71 -287
    -195 -365 -253 -463 -341 -37 -34 -74 -62 -82 -62 -8 0 -15 -4 -15 -10 0 -19
    31 -10 79 24 33 22 66 35 103 40 29 4 68 16 86 27 41 24 53 24 101 -1 38 -19
    51 -41 51 -87 0 -14 6 -23 15 -23 10 0 15 -10 15 -27 0 -16 8 -53 17 -83 9
    -31 17 -101 19 -160 2 -58 4 -116 4 -130 2 -58 -16 -190 -28 -202 -6 -6 -12
    -24 -12 -40 0 -15 -7 -31 -17 -37 -16 -8 -18 -28 -21 -145 -2 -79 1 -142 7
    -154 7 -14 6 -25 -5 -41 -10 -13 -13 -30 -8 -43 13 -42 25 -144 34 -288 5 -80
    13 -176 19 -215 6 -46 6 -73 0 -80 -10 -10 -166 -33 -231 -34 -27 -1 -64 14
    -135 54 -140 78 -221 98 -408 99 -130 1 -155 -2 -190 -19 -22 -10 -45 -26 -52
    -35 -10 -13 -13 -11 -22 13 -6 16 -11 34 -11 42 0 8 -5 17 -10 20 -6 4 -10 14
    -8 23 1 10 -1 23 -5 29 -4 7 -9 40 -10 73 -1 33 -4 60 -8 60 -16 0 -40 90 -59
    225 -6 44 -13 95 -16 113 -3 18 -9 30 -15 27 -5 -4 -9 3 -9 15 0 11 -6 31 -14
    43 -17 28 -69 245 -96 407 -27 159 -58 312 -65 318 -8 9 -10 -133 -2 -208 3
    -25 0 -51 -5 -58 -8 -9 -2 -30 20 -75 34 -70 40 -94 52 -192 8 -70 24 -143 39
    -180 20 -49 30 -96 36 -175 11 -135 14 -152 35 -214 14 -39 19 -73 16 -103 -3
    -33 0 -53 15 -76 10 -18 19 -35 19 -39 0 -13 -34 -8 -54 7 -10 8 -22 12 -27
    10 -4 -3 -10 -1 -14 5 -3 5 -11 10 -16 10 -6 0 1 -15 15 -33 15 -19 26 -41 26
    -49 0 -8 19 -28 43 -45 23 -17 69 -62 102 -100 33 -38 83 -88 112 -112 61 -50
    98 -110 108 -177 6 -48 39 -108 91 -169 l25 -30 -7 30 c-4 17 -14 40 -22 53
    -12 18 -12 28 -4 47 10 23 9 25 -11 25 -14 0 -30 12 -44 33 -20 29 -21 41 -17
    122 3 50 8 93 12 96 10 9 131 29 178 29 22 0 45 -5 52 -12 8 -8 12 -45 12
    -100 0 -52 4 -88 10 -88 6 0 10 42 10 105 l0 106 118 -1 c64 -1 141 4 171 9
    29 6 72 11 95 11 40 0 42 -2 64 -49 32 -67 39 -126 18 -150 -9 -10 -32 -65
    -52 -122 -19 -57 -42 -114 -50 -126 -7 -12 -14 -31 -14 -42 0 -11 -9 -44 -19
    -73 -19 -51 -27 -84 -72 -298 -27 -130 -56 -233 -85 -306 -44 -110 -24 -101
    34 17 83 167 116 244 162 373 22 64 49 136 60 161 20 47 126 468 155 615 9 47
    23 107 31 134 8 28 19 118 25 200 5 83 15 169 20 191 18 63 12 223 -12 357
    -24 133 -27 218 -17 488 4 96 3 213 -2 260 -16 142 -19 271 -8 295 11 24 29
    29 155 41 52 5 64 4 69 -10 9 -24 56 -19 139 14 44 17 101 39 119 44 14 5 16
    10 8 18 -6 6 -8 17 -5 25 5 11 -1 14 -23 11 -22 -2 -29 1 -29 15 0 10 -6 22
    -14 26 -11 7 -11 9 0 13 26 9 -10 58 -42 58 -22 0 -26 4 -22 20 5 17 0 20 -27
    20 -24 0 -31 -4 -26 -15 6 -17 -2 -19 -23 -6 -12 8 -12 11 0 25 8 8 20 23 28
    32 7 8 22 13 32 11 11 -3 19 -1 19 4 0 18 -104 9 -130 -11z m110 -126 c0 -10
    -7 -14 -22 -12 -32 5 -35 28 -4 28 17 0 26 -5 26 -16z m30 -22 c0 -15 -48 -54
    -61 -50 -9 3 -7 8 5 19 9 7 22 19 29 26 14 14 27 17 27 5z m25 -72 c3 -5 -1
    -10 -9 -10 -9 0 -16 5 -16 10 0 6 4 10 9 10 6 0 13 -4 16 -10z"/>
    <path d="M1790 6760 c-13 -8 -13 -10 2 -10 9 0 20 5 23 10 8 13 -5 13 -25 0z"/>
    <path d="M1935 6752 c-6 -5 -39 -21 -75 -37 -36 -15 -96 -43 -135 -61 l-70
    -34 72 0 c39 0 83 -4 98 -10 23 -9 30 -6 64 30 l38 40 106 0 c106 0 164 11
    152 30 -3 5 -30 10 -58 10 -29 0 -77 9 -107 20 -61 22 -72 24 -85 12z"/>
    <path d="M1397 6718 c-46 -16 -63 -27 -82 -59 -29 -45 -84 -83 -135 -93 -43
    -8 -49 -12 -84 -58 -33 -44 -31 -45 27 -19 23 10 67 26 97 36 30 9 78 30 107
    46 75 43 137 59 230 59 73 0 81 2 76 18 -5 22 8 34 70 66 l46 23 -147 0 c-122
    1 -157 -2 -205 -19z"/>
    <path d="M4357 6733 c-4 -3 -7 -15 -7 -25 0 -10 -5 -18 -12 -18 -6 0 -4 -8 6
    -19 16 -18 16 -21 1 -51 -11 -22 -14 -41 -9 -59 4 -14 8 -30 8 -36 1 -5 27
    -23 58 -40 32 -16 66 -38 77 -47 39 -34 72 -52 66 -36 -3 8 -15 21 -27 29 -60
    41 -74 71 -69 142 2 18 -2 27 -11 25 -7 -2 -12 3 -10 10 2 13 -41 109 -57 125
    -4 4 -10 4 -14 0z"/>
    <path d="M2220 6720 c-13 -8 -13 -10 2 -10 9 0 20 5 23 10 8 13 -5 13 -25 0z"/>
    <path d="M3810 6610 c0 -5 9 -10 21 -10 11 0 17 5 14 10 -3 6 -13 10 -21 10
    -8 0 -14 -4 -14 -10z"/>
    <path d="M2335 6577 c-4 -16 -3 -32 3 -40 6 -6 12 -28 15 -47 l4 -35 1 35 c0
    19 -3 53 -7 75 -8 39 -8 39 -16 12z"/>
    <path d="M4223 6494 c-16 -23 -22 -49 -24 -115 -5 -100 8 -124 70 -135 56 -10
    92 -32 148 -89 62 -65 108 -92 117 -70 3 8 15 15 26 15 47 0 19 44 -133 210
    -43 47 -98 105 -121 130 -24 25 -48 53 -53 64 -9 17 -12 16 -30 -10z"/>
    <path d="M4480 6515 c0 -5 5 -17 10 -25 5 -8 10 -10 10 -5 0 6 -5 17 -10 25
    -5 8 -10 11 -10 5z"/>
    <path d="M4570 6460 c0 -19 59 -70 75 -64 18 7 82 -14 115 -37 18 -13 57 -22
    135 -29 61 -5 139 -19 175 -29 75 -22 197 -67 223 -81 9 -6 40 -7 70 -4 52 6
    54 6 86 -32 52 -60 192 -184 207 -184 18 0 -21 67 -47 81 -11 5 -16 15 -13 21
    4 6 3 8 -3 5 -16 -10 -43 27 -46 62 -1 22 -6 30 -16 26 -8 -3 -20 4 -28 15 -8
    11 -23 20 -33 20 -10 0 -32 12 -47 26 -27 25 -28 26 -8 41 20 15 20 15 -2 10
    -13 -3 -25 -1 -29 4 -3 5 -21 2 -41 -6 -46 -19 -53 -19 -53 3 0 10 -12 24 -27
    32 -16 7 -40 19 -55 26 -20 11 -27 11 -30 2 -3 -9 -20 -8 -69 2 -69 15 -113
    33 -102 43 3 4 -19 7 -50 7 -31 0 -59 5 -62 10 -3 6 -21 10 -39 10 -17 0 -36
    4 -41 9 -15 13 -245 24 -245 11z"/>
    <path d="M2371 6404 c0 -11 3 -14 6 -6 3 7 2 16 -1 19 -3 4 -6 -2 -5 -13z"/>
    <path d="M3782 5680 c0 -14 2 -19 5 -12 2 6 2 18 0 25 -3 6 -5 1 -5 -13z"/>
    <path d="M3801 5594 c0 -11 3 -14 6 -6 3 7 2 16 -1 19 -3 4 -6 -2 -5 -13z"/>
    <path d="M3780 5426 c0 -8 5 -18 10 -21 6 -3 10 1 10 9 0 8 -4 18 -10 21 -5 3
    -10 -1 -10 -9z"/>
    <path d="M3841 5421 c-1 -12 17 -98 39 -191 5 -19 20 -78 35 -131 15 -52 26
    -102 24 -110 -1 -8 1 -21 4 -29 3 -8 13 -53 22 -100 16 -84 25 -116 45 -175
    19 -56 1 125 -20 200 -11 39 -27 104 -35 146 -8 42 -27 109 -41 150 -14 41
    -30 90 -34 109 -20 84 -38 144 -39 131z"/>
    <path d="M3845 5200 c2 -14 8 -41 13 -60 l10 -35 1 31 c1 16 -3 34 -8 40 -5 5
    -12 18 -15 29 -3 12 -4 10 -1 -5z"/>
    <path d="M524 5182 c9 -15 48 -23 43 -9 -2 7 -14 14 -26 15 -13 2 -21 -1 -17
    -6z"/>
    <path d="M587 5153 c-13 -13 -6 -19 37 -32 47 -13 71 -41 36 -41 -23 0 -35
    -16 -18 -23 7 -2 28 -2 46 1 25 4 32 1 32 -12 0 -8 11 -18 24 -22 28 -7 66 3
    66 16 0 12 -52 60 -65 60 -5 0 -37 14 -70 30 -62 31 -77 35 -88 23z"/>
    <path d="M840 5051 c0 -5 5 -13 10 -16 6 -3 10 -2 10 4 0 5 -4 13 -10 16 -5 3
    -10 2 -10 -4z"/>
    <path d="M420 4890 c0 -11 2 -20 4 -20 2 0 6 9 9 20 3 11 1 20 -4 20 -5 0 -9
    -9 -9 -20z"/>
    <path d="M4171 4789 c-1 -29 26 -59 54 -59 14 0 12 4 -9 21 -15 12 -32 31 -36
    43 -8 20 -9 19 -9 -5z"/>
    <path d="M4630 4748 c0 -24 16 -37 55 -46 22 -5 137 -41 255 -79 118 -39 258
    -80 310 -92 52 -12 113 -27 135 -32 88 -24 151 -9 70 16 -22 7 -101 32 -175
    55 -74 23 -187 58 -250 77 -63 19 -144 43 -180 54 -109 34 -199 59 -210 59 -5
    0 -10 -6 -10 -12z"/>
    <path d="M4035 4690 c-3 -5 -1 -10 4 -10 6 0 11 5 11 10 0 6 -2 10 -4 10 -3 0
    -8 -4 -11 -10z"/>
    <path d="M4050 4640 c0 -6 11 -56 24 -113 14 -56 27 -120 31 -142 4 -22 13
    -58 20 -80 7 -22 16 -57 19 -78 8 -44 26 -40 27 6 0 31 0 32 10 7 6 -14 22
    -81 35 -150 14 -69 30 -133 35 -142 5 -10 9 -30 10 -45 0 -16 7 -44 15 -63
    l14 -35 -5 53 c-3 30 -2 52 4 52 10 0 19 -32 50 -175 10 -44 20 -87 23 -95 9
    -22 38 -136 49 -195 6 -27 15 -54 21 -60 7 -7 9 1 4 25 -4 19 -11 58 -16 85
    -5 28 -12 65 -16 84 -5 24 -3 32 5 27 6 -4 11 -20 11 -36 0 -16 4 -31 9 -34 5
    -4 12 -30 16 -59 4 -28 11 -56 15 -62 4 -5 11 -32 15 -60 4 -27 10 -54 14 -60
    7 -9 22 -69 36 -142 7 -35 29 -59 23 -26 -2 11 1 22 6 24 12 5 42 -84 61 -180
    8 -42 19 -94 24 -115 6 -22 8 -43 6 -47 -5 -6 47 -20 53 -14 2 1 -4 36 -13 76
    -9 41 -21 97 -26 124 -23 108 -112 382 -147 452 -11 21 -34 79 -52 128 -18 50
    -43 115 -57 145 -35 77 -39 87 -63 160 -12 36 -29 81 -37 100 -8 19 -19 44
    -24 55 -4 11 -20 56 -34 100 -26 77 -41 117 -71 179 -8 16 -14 37 -14 47 0 10
    -4 20 -9 23 -4 3 -11 20 -15 38 -11 61 -68 228 -77 228 -5 0 -9 -5 -9 -10z
    m217 -632 c-3 -8 -6 -5 -6 6 -1 11 2 17 5 13 3 -3 4 -12 1 -19z m20 -70 c-3
    -7 -5 -2 -5 12 0 14 2 19 5 13 2 -7 2 -19 0 -25z m272 -732 c6 -14 7 -27 3
    -30 -16 -10 -29 10 -35 53 -5 39 -4 41 9 23 7 -11 18 -32 23 -46z m108 -368
    c-3 -7 -5 -2 -5 12 0 14 2 19 5 13 2 -7 2 -19 0 -25z"/>
    <path d="M4020 4602 c0 -23 5 -42 10 -42 7 0 8 14 4 38 -9 51 -14 53 -14 4z"/>
    <path d="M404 4615 c-4 -8 -3 -23 1 -32 12 -27 15 -132 4 -138 -5 -4 -9 -10
    -9 -16 0 -14 27 -11 34 4 3 6 3 0 0 -15 -6 -25 -3 -28 20 -28 18 0 24 4 20 15
    -10 24 15 17 58 -16 27 -22 51 -32 76 -33 26 -1 39 -7 47 -21 20 -40 27 -47
    34 -37 4 8 15 6 31 -3 14 -8 33 -18 43 -21 9 -3 17 -10 17 -15 0 -11 84 -49
    109 -49 12 0 20 -3 20 -7 -4 -27 3 -35 25 -29 18 4 25 1 29 -15 3 -12 10 -18
    16 -15 6 4 19 3 28 -2 22 -12 63 2 63 22 0 7 -12 17 -26 20 -18 5 -24 11 -20
    22 7 18 -108 137 -184 192 -25 18 -65 48 -90 67 -25 19 -54 39 -65 44 -12 5
    -27 16 -34 25 -7 9 -21 16 -31 16 -9 0 -29 9 -43 20 -14 11 -32 20 -41 20 -9
    0 -16 5 -16 10 0 6 -18 10 -39 10 -22 0 -43 5 -46 10 -9 15 -25 12 -31 -5z"/>
    <path d="M4700 4573 c1 -18 27 -102 70 -218 26 -72 82 -189 93 -193 4 -2 7
    -10 7 -19 0 -8 8 -27 19 -41 10 -15 26 -43 34 -62 9 -19 30 -60 48 -90 18 -30
    44 -77 58 -105 14 -27 28 -52 31 -55 12 -10 109 -237 120 -280 23 -89 112
    -357 143 -430 9 -19 36 -65 60 -102 25 -37 52 -91 61 -120 20 -66 35 -90 43
    -68 4 8 25 35 49 59 39 42 44 44 68 33 44 -20 62 -14 128 39 66 53 134 93 146
    85 4 -2 40 -7 79 -10 54 -5 80 -3 100 8 34 17 146 46 179 46 17 0 24 6 24 20
    0 11 5 20 11 20 5 0 8 4 5 9 -8 12 21 68 39 75 9 3 12 12 9 21 -5 11 0 18 14
    22 13 3 19 10 15 19 -3 8 1 14 8 14 19 0 59 44 59 64 0 10 9 16 25 16 18 0 25
    5 25 20 0 11 6 20 14 20 7 0 16 14 20 30 5 27 23 50 70 88 19 15 39 15 54 0
    20 -20 24 -2 7 31 -16 32 -29 39 -40 21 -10 -15 -75 -12 -81 4 -3 8 2 28 11
    45 11 22 12 31 3 31 -15 0 -68 -50 -68 -65 0 -7 -9 -20 -20 -30 -11 -10 -20
    -15 -20 -11 0 15 39 82 59 100 27 24 27 62 1 76 -16 9 -22 8 -27 -6 -4 -10 0
    -22 10 -29 14 -10 14 -12 -4 -23 -10 -7 -19 -20 -19 -31 0 -21 -32 -53 -49
    -49 -6 2 -17 -8 -24 -22 -7 -14 -23 -27 -36 -28 -21 -3 -23 0 -19 25 3 15 9
    36 13 46 12 29 -20 20 -48 -12 -20 -25 -28 -28 -41 -18 -14 11 -11 17 20 55
    20 23 44 42 55 42 13 0 19 7 19 21 0 16 -4 19 -21 14 -11 -4 -34 -1 -50 5 -27
    11 -33 23 -32 58 1 20 -14 14 -39 -18 -46 -60 -90 -115 -108 -137 -46 -54 -90
    -128 -116 -193 -15 -39 -32 -73 -36 -76 -5 -4 -7 69 -4 168 6 179 27 329 64
    443 26 80 52 171 52 182 -1 13 -70 -158 -80 -197 -5 -19 -14 -36 -19 -38 -6
    -2 -11 -13 -12 -25 0 -21 -1 -21 -9 -2 -7 17 -9 15 -9 -11 -2 -71 -51 -61 -51
    10 0 77 -12 146 -26 146 -14 0 -26 -35 -45 -125 -21 -102 -39 -102 -49 3 -5
    46 -8 55 -9 27 0 -22 -8 -72 -16 -110 -11 -52 -15 -140 -15 -341 l0 -271 -32
    -63 c-18 -35 -45 -76 -60 -93 -16 -16 -28 -33 -28 -38 0 -5 -3 -9 -7 -10 -5 0
    -18 -2 -30 -5 -12 -2 -25 1 -28 6 -3 6 -15 10 -26 10 -22 0 -25 10 -7 28 9 9
    8 12 -3 16 -8 2 -37 12 -66 21 -36 11 -54 23 -59 38 -4 12 -6 93 -5 180 2 108
    -1 157 -8 157 -6 0 -11 -6 -11 -12 0 -26 -20 17 -20 43 0 15 -10 39 -22 54
    -21 27 -25 43 -27 96 -1 14 -10 36 -20 48 -10 12 -24 35 -31 51 -7 17 -15 30
    -19 30 -4 0 -18 25 -31 55 -13 30 -27 55 -31 55 -4 0 -10 18 -14 40 -4 22 -11
    40 -16 40 -5 0 -9 7 -9 15 0 9 -9 25 -19 36 -11 12 -22 33 -26 47 -3 15 -20
    50 -38 77 -42 65 -50 79 -84 145 -15 30 -30 57 -34 60 -10 9 -39 72 -39 86 0
    7 7 17 16 22 11 6 14 16 9 31 -9 28 -37 28 -33 -1 5 -34 -20 -32 -42 4 -22 36
    -25 48 -11 48 5 0 13 -9 16 -20 8 -24 25 -27 25 -4 0 14 -99 114 -121 122 -5
    2 -9 -5 -9 -15z m55 -63 c3 -5 1 -10 -4 -10 -6 0 -11 5 -11 10 0 6 2 10 4 10
    3 0 8 -4 11 -10z m1125 -932 c0 -5 -4 -8 -10 -8 -5 0 -10 5 -10 10 0 6 -7 10
    -16 10 -8 0 -12 4 -9 10 6 10 45 -9 45 -22z m396 -73 c4 -8 15 -15 25 -15 20
    0 26 -24 8 -35 -5 -4 -15 -19 -20 -33 -9 -24 -12 -25 -20 -10 -5 9 -16 15 -23
    12 -18 -7 -27 43 -13 73 12 26 35 30 43 8z m-67 -100 c5 -26 33 -54 39 -37 2
    6 8 12 13 12 5 0 3 -13 -5 -28 -17 -33 -46 -60 -46 -43 0 6 5 11 10 11 6 0 10
    9 10 20 0 11 -7 20 -15 20 -8 0 -15 7 -15 15 0 8 -5 15 -11 15 -6 0 -9 -7 -5
    -15 5 -14 -12 -65 -35 -105 -5 -8 -15 -30 -24 -48 -59 -131 -114 -116 -65 18
    35 92 58 131 88 145 12 5 25 18 28 28 7 22 28 17 33 -8z"/>
    <path d="M4031 4538 c0 -7 4 -22 9 -33 8 -18 9 -17 9 7 1 15 -3 30 -9 33 -5 3
    -10 0 -9 -7z"/>
    <path d="M5692 4530 c-40 -5 -76 -10 -78 -13 -3 -3 19 -11 50 -18 44 -10 64
    -9 102 1 42 12 45 15 28 27 -10 7 -20 12 -23 12 -3 -1 -39 -5 -79 -9z"/>
    <path d="M5540 4499 c0 -5 5 -7 10 -4 6 3 10 8 10 11 0 2 -4 4 -10 4 -5 0 -10
    -5 -10 -11z"/>
    <path d="M5777 4395 c-14 -102 -3 -131 12 -34 5 30 6 60 1 68 -4 8 -10 -5 -13
    -34z"/>
    <path d="M4062 4400 c0 -14 2 -19 5 -12 2 6 2 18 0 25 -3 6 -5 1 -5 -13z"/>
    <path d="M4920 4366 c0 -9 5 -16 10 -16 6 0 10 4 10 9 0 6 -4 13 -10 16 -5 3
    -10 -1 -10 -9z"/>
    <path d="M6263 4339 c-7 -18 -11 -35 -8 -37 6 -6 27 48 23 60 -2 5 -9 -6 -15
    -23z"/>
    <path d="M2130 4345 c0 -8 5 -15 10 -15 6 0 10 7 10 15 0 8 -4 15 -10 15 -5 0
    -10 -7 -10 -15z"/>
    <path d="M2350 4223 c0 -10 20 -40 20 -31 0 4 11 3 24 -2 25 -9 46 3 46 27 0
    9 -15 13 -45 13 -25 0 -45 -3 -45 -7z"/>
    <path d="M5310 4183 c0 -15 5 -35 10 -43 7 -11 10 -6 10 22 0 20 -4 40 -10 43
    -6 4 -10 -6 -10 -22z"/>
    <path d="M2306 4008 c4 -199 12 -249 56 -347 21 -48 33 -76 42 -101 3 -8 4 1
    1 21 -4 24 2 61 16 102 l21 66 -27 47 c-25 42 -26 51 -16 79 16 44 14 53 -11
    61 -31 9 -47 33 -48 68 0 50 -24 196 -31 196 -4 0 -5 -87 -3 -192z m74 -147
    c0 -6 -4 -13 -10 -16 -5 -3 -10 1 -10 9 0 9 5 16 10 16 6 0 10 -4 10 -9z"/>
    <path d="M4166 4134 c8 -52 26 -112 31 -98 4 11 -23 123 -31 132 -3 2 -3 -13
    0 -34z"/>
    <path d="M2150 4153 c0 -4 5 -15 10 -23 8 -13 10 -13 10 2 0 9 -4 20 -10 23
    -5 3 -10 3 -10 -2z"/>
    <path d="M1060 4115 c-10 -12 -4 -18 35 -36 25 -12 48 -19 51 -16 3 2 -9 11
    -25 18 -18 8 -31 21 -31 31 0 22 -13 23 -30 3z"/>
    <path d="M2367 4074 c-4 -4 -7 -22 -7 -40 0 -30 2 -32 28 -25 20 5 28 15 30
    34 2 15 -1 27 -7 27 -5 0 -16 2 -23 5 -8 3 -17 2 -21 -1z"/>
    <path d="M575 3986 c0 -24 3 -48 8 -52 4 -4 7 16 7 44 0 29 -4 52 -8 52 -4 0
    -7 -20 -7 -44z"/>
    <path d="M5316 3979 c-10 -46 -10 -54 4 -151 7 -54 18 -98 23 -98 13 0 3 248
    -11 262 -8 8 -12 4 -16 -13z"/>
    <path d="M590 3872 c0 -23 5 -42 10 -42 7 0 8 14 4 38 -9 51 -14 53 -14 4z"/>
    <path d="M611 3798 c-1 -16 4 -28 9 -28 6 0 11 -10 11 -22 1 -15 3 -18 6 -7 2
    9 -3 32 -11 50 -14 34 -14 34 -15 7z"/>
    <path d="M4296 3763 c9 -52 14 -54 14 -5 0 23 -5 42 -10 42 -7 0 -8 -14 -4
    -37z"/>
    <path d="M2720 3498 c-31 -50 -24 -68 10 -28 30 35 38 60 20 60 -6 0 -19 -15
    -30 -32z"/>
    <path d="M6664 3418 c-4 -6 0 -16 9 -23 10 -7 17 -18 17 -24 0 -7 4 -10 8 -7
    5 3 7 19 4 36 -4 30 -25 40 -38 18z"/>
    <path d="M500 3410 c-10 -6 -7 -11 9 -21 14 -9 21 -24 21 -45 0 -34 26 -94 41
    -94 5 0 9 7 9 15 0 8 5 15 11 15 6 0 9 -14 7 -32 -2 -20 -8 -32 -15 -30 -7 1
    -13 -5 -13 -13 0 -9 6 -12 15 -9 9 4 15 0 15 -10 0 -9 -8 -16 -17 -16 -13 0
    -14 -3 -6 -11 9 -9 16 -8 28 5 26 25 85 18 85 -10 0 -8 7 -14 15 -14 8 0 15 9
    15 20 0 12 -7 20 -16 20 -13 0 -15 7 -10 31 3 17 6 43 6 57 0 24 1 24 18 9 14
    -13 21 -14 30 -5 18 18 15 88 -3 93 -8 3 -23 8 -32 11 -10 4 -25 8 -33 9 -40
    5 -80 17 -80 24 0 4 -15 8 -32 8 -18 0 -25 -2 -15 -4 19 -5 23 -18 7 -28 -5
    -3 -18 3 -28 13 -12 12 -25 17 -32 12z m207 -82 c-3 -8 -6 -5 -6 6 -1 11 2 17
    5 13 3 -3 4 -12 1 -19z"/>
    <path d="M804 3383 c-3 -10 -10 -26 -15 -35 -11 -21 8 -35 24 -19 17 17 31 13
    17 -4 -15 -18 -5 -31 25 -37 11 -2 21 -12 21 -23 1 -11 2 -26 3 -32 1 -7 8
    -13 16 -13 8 0 15 -9 15 -20 0 -11 6 -20 13 -20 16 -1 67 -46 67 -60 0 -5 7
    -10 15 -10 19 0 93 -51 97 -67 2 -8 8 -9 17 -4 17 11 -3 39 -134 191 -95 110
    -154 170 -167 170 -5 0 -11 -8 -14 -17z"/>
    <path d="M6619 3389 c-26 -24 -78 -59 -88 -59 -6 0 -18 -12 -28 -27 -9 -16
    -41 -53 -70 -83 -28 -30 -66 -74 -82 -97 -17 -23 -40 -47 -51 -53 -36 -19 -11
    -30 66 -30 41 0 73 4 70 9 -3 4 6 13 19 19 17 8 25 20 25 36 0 17 9 28 30 38
    33 14 42 54 15 64 -20 8 -19 20 2 28 10 4 20 1 25 -8 7 -13 13 -12 43 7 19 12
    34 30 35 39 0 9 5 20 10 23 14 9 12 25 -3 25 -8 0 -19 -10 -25 -22 -10 -21
    -11 -20 -5 7 3 17 13 40 21 52 18 29 12 51 -9 32z"/>
    <path d="M6682 3117 c-18 -18 -32 -36 -32 -41 0 -14 -25 -33 -38 -28 -6 2 -12
    -1 -12 -7 0 -25 50 -10 73 22 66 87 70 117 9 54z"/>
    <path d="M610 3004 c0 -42 6 -42 14 -1 2 14 0 29 -5 32 -5 4 -9 -11 -9 -31z"/>
    <path d="M1140 3020 c0 -5 5 -10 11 -10 5 0 7 5 4 10 -3 6 -8 10 -11 10 -2 0
    -4 -4 -4 -10z"/>
    <path d="M642 2882 c2 -9 11 -17 21 -17 24 0 23 18 -3 27 -17 6 -21 4 -18 -10z"/>
    <path d="M650 2826 c0 -13 5 -28 11 -32 6 -3 8 -17 5 -30 -5 -18 -3 -22 9 -18
    17 7 21 44 4 44 -6 0 -9 12 -7 27 2 15 -2 28 -9 30 -8 3 -13 -5 -13 -21z"/>
    <path d="M6553 2781 c-11 -17 -10 -18 13 -7 26 12 32 26 11 26 -7 0 -17 -8
    -24 -19z"/>
    <path d="M5530 2770 c0 -5 7 -10 16 -10 8 0 12 5 9 10 -3 6 -10 10 -16 10 -5
    0 -9 -4 -9 -10z"/>
    <path d="M4343 2727 c-12 -17 -27 -50 -34 -73 l-13 -41 -105 -7 c-57 -3 -130
    -6 -161 -6 -31 0 -60 -3 -64 -7 -12 -13 -216 -11 -311 2 -79 10 -103 10 -197
    -7 -59 -10 -120 -23 -135 -30 -15 -6 -39 -13 -52 -15 -14 -2 -32 -8 -40 -13
    -9 -4 -38 -11 -66 -15 -68 -9 -115 -26 -115 -42 0 -17 -15 -16 -30 2 -7 8 -19
    15 -26 15 -26 0 -24 -2 69 -89 l36 -34 35 26 c43 33 52 33 107 3 24 -13 67
    -31 95 -40 28 -9 102 -46 165 -82 63 -36 137 -77 166 -91 30 -15 80 -55 119
    -94 36 -38 74 -69 84 -69 10 0 24 -10 32 -23 27 -41 164 -137 215 -151 162
    -44 405 -122 448 -143 28 -14 91 -55 140 -92 162 -120 243 -163 380 -200 59
    -16 61 -17 90 -76 17 -34 41 -79 55 -100 23 -38 25 -47 23 -159 -2 -82 -10
    -157 -29 -243 -14 -68 -23 -127 -20 -130 3 -3 20 1 38 10 65 29 106 39 126 28
    13 -7 22 -7 31 2 8 8 62 12 169 13 129 1 168 5 217 22 77 26 160 49 207 57 32
    5 39 11 46 38 5 20 21 40 43 54 19 13 39 27 45 32 34 28 85 46 144 49 125 6
    117 3 146 57 15 28 32 53 37 56 5 4 7 17 5 30 -3 21 -14 27 -88 46 -47 12
    -104 22 -128 23 -95 1 -242 33 -242 52 0 5 -10 8 -22 9 -13 0 -17 3 -10 6 18
    7 15 21 -8 33 -15 8 -29 8 -53 0 -22 -8 -40 -9 -57 -1 l-25 10 30 2 c44 3 49
    4 60 10 6 4 27 9 48 13 29 5 37 4 37 -7 0 -15 20 -27 46 -27 8 0 14 7 14 15 0
    8 8 15 18 15 30 0 34 -13 10 -28 -22 -13 -21 -13 11 -8 19 4 40 1 47 -5 10 -9
    18 -9 28 0 7 6 22 8 32 5 23 -9 21 -6 -34 40 -38 31 -51 36 -94 36 -42 0 -55
    5 -75 26 -30 33 -23 40 24 26 49 -14 122 -21 258 -23 94 -1 142 5 224 28 33 9
    -5 13 -150 18 -185 5 -306 15 -336 26 -12 5 -35 4 -50 -1 -15 -5 -64 -14 -108
    -19 -44 -6 -111 -15 -150 -20 -118 -16 -470 -13 -590 5 -75 12 -135 52 -199
    133 -85 110 -113 185 -151 416 -44 264 -93 502 -110 539 -9 19 -31 46 -48 59
    -18 14 -43 35 -57 48 -14 12 -46 42 -72 66 -38 35 -54 43 -85 43 -32 0 -42 -6
    -60 -33z m-489 -163 c9 -3 16 -10 16 -14 0 -11 -57 -18 -72 -8 -10 6 -8 8 5 8
    9 0 17 5 17 10 0 11 11 13 34 4z m79 -6 c3 -10 8 -10 21 1 17 15 36 7 20 -8
    -20 -20 -94 -12 -94 10 0 14 48 11 53 -3z m67 -38 c0 -5 -4 -10 -10 -10 -5 0
    -10 5 -10 10 0 6 5 10 10 10 6 0 10 -4 10 -10z m-200 -80 c0 -5 -4 -10 -10
    -10 -5 0 -10 5 -10 10 0 6 5 10 10 10 6 0 10 -4 10 -10z m25 -88 c6 -13 19
    -22 32 -22 13 0 23 -6 23 -13 0 -12 53 -37 79 -37 7 0 19 -7 28 -16 11 -11 19
    -12 26 -5 17 17 35 13 42 -9 5 -16 10 -18 25 -10 28 15 35 -6 8 -24 -28 -20
    -128 -22 -129 -3 0 10 -2 10 -6 0 -2 -7 -13 -13 -23 -13 -21 0 -44 25 -35 40
    11 17 -7 11 -20 -7 -11 -15 -16 -16 -38 -4 -14 7 -30 11 -35 7 -5 -3 -15 1
    -22 9 -10 12 -9 15 6 16 17 1 17 2 -1 6 -11 3 -28 12 -37 21 -19 16 -24 52 -8
    52 6 0 19 9 31 21 24 24 40 21 54 -9z m165 -1 c0 -11 -31 -24 -39 -16 -3 3 1
    10 9 15 19 12 30 12 30 1z m-232 -99 c2 -7 -3 -12 -12 -12 -9 0 -16 7 -16 16
    0 17 22 14 28 -4z m555 -25 c48 -2 87 0 87 4 0 13 22 11 53 -3 28 -14 38 -34
    11 -24 -9 3 -27 9 -41 12 -23 6 -25 4 -19 -17 3 -13 3 -18 0 -11 -7 15 -44 16
    -44 1 0 -17 -108 -7 -149 14 -19 10 -44 14 -57 11 -17 -4 -24 -2 -24 8 0 11
    11 14 48 12 26 -2 86 -5 135 -7z m-553 -27 c0 -5 -7 -10 -16 -10 -8 0 -12 5
    -9 10 3 6 10 10 16 10 5 0 9 -4 9 -10z m1005 -386 c-9 -9 -14 -23 -11 -30 3
    -7 1 -16 -4 -19 -6 -4 -10 -1 -10 4 0 6 -7 11 -15 11 -8 0 -15 -4 -15 -10 0
    -5 -12 -10 -27 -10 l-28 1 30 16 c17 9 41 24 54 34 29 23 48 25 26 3z m15 -24
    c0 -5 -2 -10 -4 -10 -3 0 -8 5 -11 10 -3 6 -1 10 4 10 6 0 11 -4 11 -10z
    m1275 -420 c-3 -5 -10 -10 -16 -10 -5 0 -9 5 -9 10 0 6 7 10 16 10 8 0 12 -4
    9 -10z m125 -40 c0 -5 -7 -10 -15 -10 -8 0 -15 5 -15 10 0 6 7 10 15 10 8 0
    15 -4 15 -10z m-227 -27 c-7 -2 -19 -2 -25 0 -7 3 -2 5 12 5 14 0 19 -2 13 -5z"/>
    <path d="M6495 2740 c-3 -5 -1 -10 4 -10 6 0 11 5 11 10 0 6 -2 10 -4 10 -3 0
    -8 -4 -11 -10z"/>
    <path d="M681 2688 c-1 -31 2 -36 16 -31 11 5 14 3 8 -6 -7 -12 9 -30 26 -31
    4 0 9 21 11 46 3 45 3 45 -24 40 -16 -3 -29 0 -32 7 -2 7 -5 -5 -5 -25z"/>
    <path d="M760 2656 c0 -14 4 -27 8 -30 5 -3 6 8 4 25 -5 35 -12 38 -12 5z"/>
    <path d="M6696 2615 c-3 -8 -1 -15 5 -15 5 0 24 -13 42 -30 22 -20 34 -25 39
    -17 5 8 9 6 14 -6 8 -23 24 -22 24 2 0 21 -10 30 -63 60 -45 25 -53 26 -61 6z"/>
    <path d="M752 2582 c-19 -6 -14 -22 6 -22 27 0 52 -32 59 -74 3 -20 9 -36 13
    -36 5 0 7 8 5 18 -2 9 -7 34 -10 54 -4 27 -13 41 -33 51 -15 7 -33 12 -40 9z"/>
    <path d="M720 2540 c0 -11 4 -20 9 -20 5 0 12 -24 15 -54 4 -32 13 -57 21 -60
    21 -8 26 8 11 29 -8 12 -11 28 -6 44 5 19 1 34 -14 54 -23 32 -36 35 -36 7z"/>
    <path d="M779 2352 c11 -19 36 -111 40 -143 0 -5 5 -8 10 -4 5 3 13 0 16 -5 5
    -7 12 -5 20 7 16 22 8 38 -11 22 -16 -13 -19 -7 -28 56 -3 22 -10 41 -16 43
    -5 2 -10 10 -10 17 0 7 -7 15 -15 19 -11 4 -13 1 -6 -12z"/>
    <path d="M880 2320 c0 -5 7 -10 15 -10 8 0 15 5 15 10 0 6 -7 10 -15 10 -8 0
    -15 -4 -15 -10z"/>
    <path d="M852 2163 c-17 -30 -15 -37 4 -19 8 9 14 22 11 29 -2 7 -8 4 -15 -10z"/>
    <path d="M850 2101 c0 -6 5 -13 10 -16 6 -3 10 1 10 9 0 9 -4 16 -10 16 -5 0
    -10 -4 -10 -9z"/>
    <path d="M881 2014 c0 -11 3 -14 6 -6 3 7 2 16 -1 19 -3 4 -6 -2 -5 -13z"/>
    <path d="M3370 1962 c0 -22 63 -72 147 -118 164 -88 378 -218 438 -264 33 -26
    99 -73 147 -104 49 -32 90 -62 94 -67 3 -5 10 -9 16 -9 16 0 -34 51 -100 102
    -205 160 -308 257 -347 325 -25 44 -54 56 -235 102 -63 16 -125 33 -137 36
    -14 5 -23 3 -23 -3z"/>
    <path d="M937 1853 c-4 -3 -7 -13 -7 -21 0 -9 3 -12 7 -9 3 4 12 -1 19 -11 18
    -25 26 -10 11 21 -12 28 -19 32 -30 20z"/>
    <path d="M942 1773 c2 -9 9 -18 16 -21 18 -6 15 25 -4 32 -11 4 -14 1 -12 -11z"/>
    <path d="M5355 1770 c3 -5 8 -10 11 -10 2 0 4 5 4 10 0 6 -5 10 -11 10 -5 0
    -7 -4 -4 -10z"/>
    <path d="M968 1730 c-23 -21 -23 -40 -1 -40 15 0 14 -2 -3 -16 -13 -10 -15
    -17 -7 -20 8 -4 6 -11 -8 -25 -10 -10 -19 -30 -19 -44 0 -14 -6 -28 -14 -31
    -8 -3 -17 -17 -21 -31 -3 -14 -17 -40 -30 -58 -14 -17 -26 -40 -28 -51 -1 -11
    -13 -34 -25 -51 -25 -35 -28 -48 -9 -37 6 5 4 -3 -5 -16 -10 -14 -27 -41 -37
    -60 -10 -19 -51 -70 -90 -113 -39 -42 -78 -92 -86 -110 -8 -17 -24 -46 -35
    -63 -17 -27 -21 -50 -22 -155 -1 -122 -1 -125 25 -153 15 -16 27 -33 27 -38 0
    -5 12 -7 26 -6 15 2 29 -3 31 -10 3 -7 -3 -11 -16 -10 -11 2 -20 -1 -20 -7 0
    -5 11 -10 26 -10 14 0 28 -6 31 -14 3 -9 0 -11 -8 -6 -10 6 -12 4 -7 -8 4 -10
    -12 -40 -44 -81 -60 -79 -89 -144 -89 -197 0 -21 -4 -39 -9 -39 -6 0 -9 -50
    -9 -115 l1 -115 1381 1 c1286 2 1367 3 1181 16 -191 13 -206 16 -340 59 -192
    62 -218 75 -184 86 13 4 -39 128 -53 128 -5 0 -23 16 -40 35 -34 40 -57 54
    -96 61 -35 7 -42 12 -42 34 0 25 -54 54 -86 46 -15 -4 -30 -1 -39 7 -12 12 -6
    15 38 22 29 4 88 11 132 15 l80 7 -95 2 c-52 1 -115 6 -140 11 -25 4 -63 12
    -85 16 -22 4 -43 11 -46 17 -10 14 -99 22 -99 8 0 -6 -14 -11 -31 -11 -19 0
    -28 -4 -23 -11 3 -6 15 -8 26 -5 12 2 27 -2 35 -10 8 -8 30 -14 48 -14 18 0
    40 -7 49 -15 8 -8 24 -15 36 -15 20 0 20 -1 4 -17 -13 -14 -39 -17 -129 -19
    -63 -1 -122 -7 -134 -13 -11 -6 -29 -11 -40 -11 -12 0 -21 -7 -21 -15 0 -8 6
    -15 14 -15 8 0 17 -7 20 -16 9 -23 7 -31 -4 -14 -7 12 -12 12 -35 0 -23 -12
    -28 -12 -35 0 -5 8 -12 11 -16 7 -14 -14 20 -39 47 -33 15 3 29 2 33 -1 7 -7
    -60 -33 -86 -33 -10 0 -18 -4 -18 -9 0 -14 -136 -54 -159 -46 -21 6 -30 35
    -11 35 6 0 10 7 10 15 0 8 3 15 8 15 11 0 43 60 37 70 -6 10 -87 50 -101 50
    -5 0 -22 14 -37 30 -16 17 -24 30 -18 30 6 0 11 4 11 9 0 6 -21 10 -47 10 -27
    0 -64 2 -83 5 -19 3 -47 5 -62 5 -17 1 -28 7 -28 15 0 19 -44 46 -74 46 -27 0
    -63 41 -52 59 7 11 -3 41 -14 41 -4 0 -5 -11 -2 -25 2 -15 0 -25 -7 -25 -6 0
    -11 -12 -11 -26 0 -14 -4 -22 -10 -19 -6 3 -8 27 -5 53 4 33 3 43 -5 32 -7
    -11 -10 -3 -10 33 0 27 -4 46 -9 43 -5 -3 -11 20 -14 52 -4 31 -9 72 -13 90
    -5 25 -3 32 10 32 17 0 20 -9 16 -48 -1 -13 4 -30 11 -38 9 -11 9 -21 1 -38
    -9 -20 -8 -25 9 -29 14 -4 19 -14 19 -42 0 -20 4 -34 10 -30 5 3 7 12 3 20 -3
    8 0 15 6 15 6 0 11 -5 11 -10 0 -15 58 -70 73 -70 7 0 20 -9 30 -20 9 -11 25
    -20 35 -20 11 0 27 -9 38 -21 25 -27 69 -50 86 -44 7 2 38 6 68 8 33 2 55 7
    55 14 0 6 -19 26 -43 43 -48 35 -62 58 -41 71 12 8 12 11 -1 19 -20 13 -30 13
    -30 -1 0 -6 -8 -3 -17 7 -13 13 -14 19 -5 22 17 5 15 37 -3 52 -8 7 -15 18
    -15 25 0 10 -28 51 -68 100 -5 6 -9 18 -9 27 0 13 4 15 19 7 10 -5 18 -16 18
    -24 0 -8 7 -15 15 -15 20 0 19 14 -1 31 -10 8 -14 23 -12 41 5 32 -3 35 -27
    12 -23 -24 -31 -9 -10 22 14 21 15 31 6 51 -12 26 -6 63 9 63 5 0 -2 12 -15
    26 -13 14 -27 35 -30 45 -4 11 -11 19 -16 19 -5 0 -9 20 -9 45 0 33 -4 45 -15
    45 -8 0 -15 7 -15 15 0 9 -8 27 -17 41 -13 21 -14 27 -3 34 18 11 5 61 -15 54
    -10 -4 -15 0 -15 15 0 12 -6 21 -15 21 -8 0 -15 5 -15 10 0 6 5 10 12 10 6 0
    2 10 -9 23 -15 15 -20 30 -16 48 4 20 -3 33 -30 58 -25 24 -33 39 -29 54 3 13
    1 18 -6 13 -6 -4 -12 3 -14 17 -3 22 -4 23 -20 7z m9 -362 c-3 -7 -5 -2 -5 12
    0 14 2 19 5 13 2 -7 2 -19 0 -25z m0 -105 c-3 -10 -5 -4 -5 12 0 17 2 24 5 18
    2 -7 2 -21 0 -30z m0 -85 c-3 -7 -5 -2 -5 12 0 14 2 19 5 13 2 -7 2 -19 0 -25z
    m26 -150 c4 -49 3 -78 -3 -78 -6 0 -10 35 -10 82 0 45 2 79 4 77 2 -2 6 -39 9
    -81z m44 -100 c-3 -8 -6 -5 -6 6 -1 11 2 17 5 13 3 -3 4 -12 1 -19z m850 -614
    c-3 -3 -12 -4 -19 -1 -8 3 -5 6 6 6 11 1 17 -2 13 -5z m60 0 c-3 -3 -12 -4
    -19 -1 -8 3 -5 6 6 6 11 1 17 -2 13 -5z m60 -10 c-3 -3 -12 -4 -19 -1 -8 3 -5
    6 6 6 11 1 17 -2 13 -5z m50 -10 c-3 -3 -12 -4 -19 -1 -8 3 -5 6 6 6 11 1 17
    -2 13 -5z"/>
    <path d="M5290 1556 c0 -16 21 -26 53 -26 19 0 17 3 -11 20 -39 24 -42 24 -42
    6z"/>
    <path d="M6645 1450 c-4 -6 28 -10 89 -10 52 0 98 4 101 10 4 6 -28 10 -89 10
    -52 0 -98 -4 -101 -10z"/>
    <path d="M6960 1280 c-11 -7 -7 -10 17 -10 17 0 35 5 38 10 8 13 -35 13 -55 0z"/>
    <path d="M6165 1250 c-15 -6 -8 -9 28 -9 30 -1 46 3 42 9 -7 12 -42 12 -70 0z"/>
    <path d="M6815 1225 c-28 -12 -28 -13 -7 -14 13 -1 30 6 38 14 19 18 9 18 -31
    0z"/>
    <path d="M5490 559 c0 -18 50 -122 56 -116 3 2 -9 33 -26 68 -16 35 -30 57
    -30 48z"/>
    <path d="M616 535 c-3 -8 -1 -15 4 -15 6 0 10 7 10 15 0 8 -2 15 -4 15 -2 0
    -6 -7 -10 -15z"/>
    <path d="M1583 503 c9 -2 23 -2 30 0 6 3 -1 5 -18 5 -16 0 -22 -2 -12 -5z"/>
    <path d="M1688 493 c6 -2 18 -2 25 0 6 3 1 5 -13 5 -14 0 -19 -2 -12 -5z"/>
    <path d="M1845 490 c-3 -5 1 -10 9 -10 9 0 16 5 16 10 0 6 -4 10 -9 10 -6 0
    -13 -4 -16 -10z"/>
    <path d="M4524 406 c-24 -28 -49 -84 -41 -92 3 -3 1 -19 -3 -35 -8 -27 -7 -29
    21 -29 16 0 29 4 29 10 0 15 43 35 48 21 5 -15 24 -14 20 2 -1 6 6 24 16 39
    20 31 15 78 -8 78 -7 0 -19 7 -26 15 -17 21 -32 19 -56 -9z"/>
    <path d="M5550 417 c0 -7 4 -17 9 -22 11 -11 40 -164 42 -216 l1 -34 8 30 c4
    17 8 28 9 25 1 -3 10 -48 19 -100 15 -82 20 -95 38 -98 20 -3 21 -2 8 60 -8
    35 -14 73 -14 85 0 34 -58 203 -81 234 -10 15 -19 32 -19 38 0 6 -4 11 -10 11
    -5 0 -10 -6 -10 -13z"/>
    <path d="M4383 393 c-44 -15 -77 -32 -83 -44 -18 -32 -3 -38 42 -16 23 12 59
    20 80 20 31 -2 38 2 38 16 0 11 7 22 16 25 17 6 10 27 -9 25 -7 -1 -45 -12
    -84 -26z"/>
    <path d="M1680 330 c-9 -16 -8 -20 5 -20 8 0 15 2 15 4 0 2 3 11 6 20 9 23
    -13 20 -26 -4z"/>
    <path d="M4360 270 c0 -5 7 -10 15 -10 8 0 15 5 15 10 0 6 -7 10 -15 10 -8 0
    -15 -4 -15 -10z"/>
    <path d="M3897 264 c-4 -4 -7 -14 -7 -23 0 -11 3 -12 11 -4 6 6 10 16 7 23 -2
    6 -7 8 -11 4z"/>
    <path d="M4258 262 c-15 -36 -275 -133 -392 -146 -32 -3 -91 -19 -130 -35 -56
    -23 -91 -30 -166 -34 -53 -2 -106 -9 -118 -16 -13 -7 -42 -16 -65 -21 -29 -5
    21 -8 156 -9 191 -1 199 0 216 20 10 13 30 22 50 23 18 1 39 9 46 19 7 10 28
    19 46 21 19 2 47 9 62 15 20 8 34 8 48 0 15 -7 24 -7 34 1 8 6 27 11 42 9 15
    -1 39 3 53 8 14 6 63 10 108 9 46 -1 86 2 88 6 2 3 27 5 54 4 38 -2 50 0 50
    12 0 8 6 12 14 9 15 -6 26 12 26 40 0 10 -6 13 -16 9 -8 -3 -24 -1 -35 5 -14
    7 -27 6 -47 -3 -41 -21 -91 -3 -99 34 -5 27 -18 37 -25 20z"/>
    <path d="M4680 239 c0 -5 5 -7 10 -4 6 3 10 8 10 11 0 2 -4 4 -10 4 -5 0 -10
    -5 -10 -11z"/>
    <path d="M4530 220 c0 -5 -7 -10 -15 -10 -21 0 -30 -27 -15 -45 19 -23 30 -18
    30 15 0 17 5 30 10 30 6 0 10 5 10 10 0 6 -4 10 -10 10 -5 0 -10 -4 -10 -10z"/>
    <path d="M4588 223 c6 -2 18 -2 25 0 6 3 1 5 -13 5 -14 0 -19 -2 -12 -5z"/>
    </g>
    </svg>
